<?xml version="1.0" encoding="utf-8"?>
<!-- Generator: Adobe Illustrator 27.1.0, SVG Export Plug-In . SVG Version: 6.00 Build 0)  -->
<svg version="1.1" id="Layer_1" xmlns="http://www.w3.org/2000/svg" xmlns:xlink="http://www.w3.org/1999/xlink" x="0px" y="0px"
	 viewBox="0 0 236.9 179.6" style="enable-background:new 0 0 236.9 179.6;" xml:space="preserve">
<style type="text/css">
	.st0{fill:#5B36A0;}
	.st1{fill:#6862E6;}
	.st2{opacity:0.25;fill:url(#Path-2_00000092449771496962304720000002128644856028021435_);enable-background:new    ;}
	.st3{opacity:0.25;fill:url(#Path-3_00000008868274098493968570000001876789609055806621_);enable-background:new    ;}
	.st4{opacity:0.46;fill:url(#Path-4_00000131360489620485567680000009157169152340591270_);enable-background:new    ;}
	.st5{fill:#68E1FD;}
	.st6{fill:#974C26;}
	.st7{fill:#999A1C;}
	.st8{fill:#A1482D;}
	.st9{fill:#F47B56;}
	.st10{fill:#FFFFFF;}
	.st11{fill:#AB643C;}
	.st12{opacity:0.32;fill:url(#Path-8_00000026145248117451458700000008018858498764351873_);enable-background:new    ;}
	.st13{fill:#E2AC00;}
	.st14{fill:#F2F2F2;}
	.st15{fill:#FF8F6F;}
	.st16{fill:#003B94;}
	.st17{fill:#3E2928;}
	.st18{fill:#FFB5A9;}
	.st19{fill:#007F68;}
	.st20{opacity:0.25;fill:url(#Path-34_00000080173052835651213740000009194279588112931481_);enable-background:new    ;}
	.st21{fill-rule:evenodd;clip-rule:evenodd;}
	.st22{fill-rule:evenodd;clip-rule:evenodd;fill:#FF9271;}
	.st23{fill:#DF5C34;}
</style>
<g id="Layer_2_00000115494898174509491840000015658194680088400003_">
	<g id="Layer_1-2">
		<g id="Page-1">
			<g id="Group-4">
				<g id="mention_isometric-2">
					<g id="mention_isometric">
						<path id="Path" class="st0" d="M114.9,177.7L4.6,112.5c-3.5-2-6.5-5.2-3.1-7.3l110.7-63.8c1.7-1,4.2-1.7,5.9-0.7l115.8,67.2
							c3.5,2,4.1,7.7,0.6,9.8l-105.1,60C125,180.2,119.4,180.2,114.9,177.7z"/>
						<path id="Path-Copy" class="st1" d="M114.9,174.7L4.6,109.5c-3.5-2-6.5-5.2-3.1-7.3l110.7-63.8c1.7-1,4.2-1.7,5.9-0.7
							l115.8,67.2c3.5,2,4.1,7.7,0.6,9.8l-105.1,60C125,177.2,119.4,177.2,114.9,174.7L114.9,174.7z"/>
						
							<linearGradient id="Path-2_00000047755500722488987700000001823781507970291620_" gradientUnits="userSpaceOnUse" x1="-595.6861" y1="734.9561" x2="-595.8861" y2="734.7661" gradientTransform="matrix(52.93 0 0 -35.76 31668.2012 26384.4219)">
							<stop  offset="0" style="stop-color:#7F3500"/>
							<stop  offset="1" style="stop-color:#231F20;stop-opacity:0"/>
						</linearGradient>
						
							<path id="Path-2" style="opacity:0.25;fill:url(#Path-2_00000047755500722488987700000001823781507970291620_);enable-background:new    ;" d="
							M124,88.7l-21.8,12.4c0,0,33.5,20.5,40.4,23.3l12.5-18"/>
						
							<linearGradient id="Path-3_00000096752275088104655910000008082206130268645020_" gradientUnits="userSpaceOnUse" x1="-593.2073" y1="721.6391" x2="-593.7274" y2="721.2991" gradientTransform="matrix(43.55 0 0 -25.69 25942.459 18682.5176)">
							<stop  offset="3.000000e-02" style="stop-color:#7F3500"/>
							<stop  offset="1" style="stop-color:#231F20;stop-opacity:0"/>
						</linearGradient>
						
							<path id="Path-3" style="opacity:0.25;fill:url(#Path-3_00000096752275088104655910000008082206130268645020_);enable-background:new    ;" d="
							M116.5,148.3l-21.8-12.4L73,148.3c0,0,11.3,6.9,22.2,13.3C102,156.7,108.9,151.8,116.5,148.3z"/>
						
							<linearGradient id="Path-4_00000176024837975626511340000008361113513142197148_" gradientUnits="userSpaceOnUse" x1="-584.358" y1="701.1635" x2="-584.948" y2="700.7234" gradientTransform="matrix(26.11 0 0 -17.98 15334.04 12682.6104)">
							<stop  offset="0" style="stop-color:#843C09;stop-opacity:0.85"/>
							<stop  offset="1" style="stop-color:#231F20;stop-opacity:0"/>
						</linearGradient>
						
							<path id="Path-4" style="opacity:0.46;fill:url(#Path-4_00000176024837975626511340000008361113513142197148_);enable-background:new    ;" d="
							M69.6,71.7l-13.8,7.9c0,0,1.2,7.2,8,10.1l18.1-11.6"/>
						<ellipse id="Oval" class="st5" cx="76.3" cy="73.8" rx="8.3" ry="5.9"/>
						<ellipse id="Oval-2" class="st6" cx="76.3" cy="70.3" rx="6.2" ry="2.6"/>
						<path id="Shape" class="st7" d="M76.1,66c0-1.2,0-2.3-0.1-3.5l-0.1-0.9L75.8,61c0-0.2,0-0.4-0.1-0.6l-0.1-0.7
							c-0.7-3.9-2.2-7.6-4.4-10.9c-0.8,2-1.3,4.2-1.2,6.4c0,0.7,0.1,1.3,0.1,1.9v0.4c0,0.3,0.1,0.7,0.2,0.9c0.3,1.2,0.6,2.3,1,3.5
							c0.4,1,0.8,2,1.3,3c0.6,1.1,1.2,2.2,1.8,3.2c0.5,0.8,1,1.5,1.5,2.2C76,68.9,76.1,67.4,76.1,66z M72.8,53.1c0-0.1,0-0.3,0-0.5
							c0.2,0.2,0.3,0.3,0.5,0.5C73.2,53.1,73,53.1,72.8,53.1L72.8,53.1z"/>
						<path id="Shape-2" class="st7" d="M78.3,66.9c0.6-1,1.2-2,1.8-3c0.2-0.3,0.3-0.5,0.4-0.8l0.3-0.5l0.2-0.5
							c0.1-0.2,0.2-0.4,0.3-0.7c1.5-3.7,2.3-7.6,2.1-11.6c-1.8,1.2-3.3,2.8-4.5,4.7c-0.3,0.5-0.7,1.1-0.9,1.7l-0.1,0.2v0.1l-0.4,0.9
							c-0.4,1.1-0.7,2.3-1,3.4c-0.3,1.1-0.4,2.2-0.5,3.3c-0.1,1.2-0.2,2.4-0.2,3.7c0,1,0,1.8,0.1,2.7C76.6,69.3,77.5,68.1,78.3,66.9
							z M82.5,54.3c0.1-0.1,0.2-0.3,0.2-0.4c0,0.2,0.1,0.4,0.1,0.7C82.7,54.4,82.6,54.3,82.5,54.3z"/>
						<path id="Shape-3" class="st7" d="M78.2,69.8c0.7-0.3,1.3-0.7,1.9-1.1l0.5-0.3l0.3-0.2l0.3-0.2l0.4-0.3c2-1.5,3.7-3.4,4.9-5.5
							c-1.4,0.1-2.7,0.5-3.9,1.1c-0.3,0.2-0.7,0.4-1,0.6L81.4,64l-0.5,0.4c-0.6,0.5-1.1,1-1.7,1.5c-0.5,0.5-0.9,1-1.3,1.6
							c-0.5,0.7-0.9,1.3-1.3,1.9s-0.6,1-0.8,1.5C76.6,70.5,77.4,70.2,78.2,69.8L78.2,69.8z M84.6,64.3c0.1,0,0.2-0.1,0.2-0.1
							c0,0.1-0.1,0.3-0.2,0.4C84.7,64.5,84.6,64.4,84.6,64.3L84.6,64.3z"/>
						<path id="Shape-4" class="st7" d="M76.1,66c0-1.2,0-2.3-0.1-3.5l-0.1-0.9L75.8,61c0-0.2,0-0.4-0.1-0.6l-0.1-0.7
							c-0.7-3.9-2.2-7.6-4.4-10.9c-0.8,2-1.3,4.2-1.2,6.4c0,0.7,0.1,1.3,0.1,1.9v0.4c0,0.3,0.1,0.7,0.2,0.9c0.3,1.2,0.6,2.3,1,3.5
							c0.4,1,0.8,2,1.3,3c0.6,1.1,1.2,2.2,1.8,3.2c0.5,0.8,1,1.5,1.5,2.2C76,68.9,76.1,67.4,76.1,66z M72.8,53.1c0-0.1,0-0.3,0-0.5
							c0.2,0.2,0.3,0.3,0.5,0.5C73.2,53.1,73,53.1,72.8,53.1L72.8,53.1z"/>
						<path id="Shape-5" class="st7" d="M78.3,66.9c0.6-1,1.2-2,1.8-3c0.2-0.3,0.3-0.5,0.4-0.8l0.3-0.5l0.2-0.5
							c0.1-0.2,0.2-0.4,0.3-0.7c1.5-3.7,2.3-7.6,2.1-11.6c-1.8,1.2-3.3,2.8-4.5,4.7c-0.3,0.5-0.7,1.1-0.9,1.7l-0.1,0.2v0.1l-0.4,0.9
							c-0.4,1.1-0.7,2.3-1,3.4c-0.3,1.1-0.4,2.2-0.5,3.3c-0.1,1.2-0.2,2.4-0.2,3.7c0,1,0,1.8,0.1,2.7C76.6,69.3,77.5,68.1,78.3,66.9
							z M82.5,54.3c0.1-0.1,0.2-0.3,0.2-0.4c0,0.2,0.1,0.4,0.1,0.7C82.7,54.4,82.6,54.3,82.5,54.3z"/>
						<path id="Shape-6" class="st7" d="M78.2,69.8c0.7-0.3,1.3-0.7,1.9-1.1l0.5-0.3l0.3-0.2l0.3-0.2l0.4-0.3c2-1.5,3.7-3.4,4.9-5.5
							c-1.4,0.1-2.7,0.5-3.9,1.1c-0.3,0.2-0.7,0.4-1,0.6L81.4,64l-0.5,0.4c-0.6,0.5-1.1,1-1.7,1.5c-0.5,0.5-0.9,1-1.3,1.6
							c-0.5,0.7-0.9,1.3-1.3,1.9s-0.6,1-0.8,1.5C76.6,70.5,77.4,70.2,78.2,69.8L78.2,69.8z M84.6,64.3c0.1,0,0.2-0.1,0.2-0.1
							c0,0.1-0.1,0.3-0.2,0.4C84.7,64.5,84.6,64.4,84.6,64.3L84.6,64.3z"/>
						<path id="Path-5" class="st8" d="M132.7,83.8l-12,5.8c-0.9,0.4-1.6,1.3-1.6,2.4c0,1,0.5,2,1.4,2.5l28.6,16.7
							c1.3,0.7,2.9,0.4,3.7-0.9l6.9-10.8"/>
						<path id="Path-6" class="st9" d="M198.2,55.9L102.1,0.6c-2.1-1.2-4.7-0.5-5.9,1.6c-0.4,0.7-0.6,1.4-0.6,2.2V62
							c0,1.3,0.7,2.5,1.8,3.1l102.4,59.1c1.1,0.6,2.5,0.3,3.2-0.8c0.2-0.4,0.3-0.8,0.3-1.2V64.8C203.3,61.1,201.4,57.7,198.2,55.9z"
							/>
						<path id="Path-7" class="st10" d="M102.1,4.9l93.2,53.6c2,1.2,3.3,3.3,3.3,5.7v43.2c0,1.3-1.1,2.3-2.4,2.3
							c-0.4,0-0.8-0.1-1.1-0.3l-95-54.4c-0.7-0.4-1.2-1.2-1.2-2V6.8c0-1.2,1-2.2,2.2-2.2C101.4,4.6,101.8,4.7,102.1,4.9L102.1,4.9z"
							/>
						
							<ellipse id="Oval-3" transform="matrix(0.982 -0.1891 0.1891 0.982 -13.3607 28.1628)" class="st11" cx="140.9" cy="84.1" rx="2" ry="2.3"/>
						
							<linearGradient id="Path-8_00000046308527526327461090000013507232978994617509_" gradientUnits="userSpaceOnUse" x1="-597.554" y1="733.6918" x2="-597.6942" y2="733.7518" gradientTransform="matrix(64.69 0 0 -34.67 38834.9102 25513.2031)">
							<stop  offset="0" style="stop-color:#FFFFFF;stop-opacity:0"/>
							<stop  offset="0.99" style="stop-color:#DC841E"/>
						</linearGradient>
						
							<path id="Path-8" style="opacity:0.32;fill:url(#Path-8_00000046308527526327461090000013507232978994617509_);enable-background:new    ;" d="
							M127.2,63.5l43.3,26l21.4-12.4l-38.2-22.2"/>
						<path id="Path-9" class="st13" d="M180.7,58.3l-46.8-28.5c-0.8-0.4-1.8-0.2-2.2,0.6c-0.2,0.3-0.2,0.6-0.2,0.9v16.3
							c0,0.6,0.3,1.2,0.8,1.5L179.1,77c0.5,0.3,1.1,0.3,1.6,0s0.8-0.8,0.8-1.4l0.2-15.2C181.8,59.5,181.4,58.8,180.7,58.3
							L180.7,58.3z"/>
						<path id="Path-10" class="st10" d="M169.5,66.7c1.7,2.3,4.6,3,6.6,1.5s2.2-4.7,0.5-7s-4.6-3-6.6-1.5S167.8,64.3,169.5,66.7z"
							/>
						<path id="Path-11" class="st14" d="M164.9,55.4l-19.1-11.5c-0.4-0.2-0.8,0-1,0.4c-0.1,0.3,0,0.7,0.2,0.9l19.1,11.5
							c0.4,0.2,0.8,0,1-0.4C165.2,56,165.1,55.6,164.9,55.4z"/>
						<path id="Path-12" class="st14" d="M164.1,60.1l-26.3-15.8c-0.3-0.1-0.7,0-0.9,0.3s-0.1,0.7,0.2,0.9l26.3,15.8
							c0.3,0.2,0.7,0,0.9-0.3S164.4,60.3,164.1,60.1L164.1,60.1z"/>
						<path id="Path-13" class="st9" d="M171.3,61.5L124.5,33c-0.8-0.4-1.8-0.2-2.2,0.6c-0.2,0.3-0.2,0.6-0.2,0.9v16.2
							c0,0.6,0.3,1.2,0.8,1.5L169.7,80c0.8,0.4,1.7,0.2,2.2-0.6c0.2-0.3,0.2-0.6,0.2-0.9l0.2-15.2C172.4,62.6,172,61.8,171.3,61.5
							L171.3,61.5z"/>
						<path id="Path-14" class="st10" d="M160.1,69.8c1.7,2.3,4.6,3,6.6,1.5s2.2-4.7,0.5-7s-4.6-3-6.6-1.5S158.5,67.5,160.1,69.8z"
							/>
						<path id="Path-15" class="st14" d="M155.5,58.6l-19.1-11.5c-0.4-0.2-0.8-0.1-1,0.3c-0.2,0.3-0.1,0.7,0.2,0.9l19.1,11.5
							c0.3,0.2,0.7,0,0.9-0.3C156,59.2,155.9,58.7,155.5,58.6C155.5,58.5,155.5,58.5,155.5,58.6L155.5,58.6z"/>
						<path id="Path-16" class="st14" d="M154.8,63.3l-26.3-15.9c-0.3-0.2-0.7,0-0.9,0.3c-0.2,0.3-0.1,0.8,0.2,1L154,64.5
							c0.3,0.2,0.7,0,0.9-0.3C155.1,63.9,155.1,63.4,154.8,63.3L154.8,63.3z"/>
						<path id="Path-17" class="st5" d="M159.6,63.4l-46.8-28.5c-0.8-0.5-1.8-0.2-2.2,0.6c-0.2,0.3-0.2,0.6-0.2,0.9v16.2
							c0,0.6,0.3,1.2,0.8,1.5L158,82c0.8,0.4,1.8,0.2,2.2-0.6c0.2-0.3,0.2-0.6,0.2-0.9l0.2-15.2C160.7,64.6,160.3,63.8,159.6,63.4
							L159.6,63.4z"/>
						<path id="Path-18" class="st5" d="M159.6,63.4l-46.8-28.5c-0.8-0.5-1.8-0.2-2.2,0.6c-0.2,0.3-0.2,0.6-0.2,0.9v16.2
							c0,0.6,0.3,1.2,0.8,1.5L158,82c0.8,0.4,1.8,0.2,2.2-0.6c0.2-0.3,0.2-0.6,0.2-0.9l0.2-15.2C160.7,64.6,160.3,63.8,159.6,63.4
							L159.6,63.4z"/>
						<path id="Path-19" class="st10" d="M148.4,71.7c1.7,2.3,4.6,3,6.6,1.5s2.2-4.7,0.5-7s-4.6-3-6.6-1.5S146.7,69.4,148.4,71.7z"
							/>
						<path id="Path-20" class="st14" d="M143.8,60.5L124.7,49c-0.4-0.2-0.8,0-1,0.4c-0.1,0.3,0,0.7,0.2,0.9L143,61.8
							c0.3,0.2,0.7,0,0.9-0.3C144.2,61.1,144.1,60.7,143.8,60.5L143.8,60.5L143.8,60.5z"/>
						<path id="Path-21" class="st14" d="M143,65.2l-26.3-15.8c-0.4-0.2-0.8,0-1,0.4c-0.1,0.3,0,0.7,0.2,0.9l26.3,15.8
							c0.4,0.2,0.8,0,1-0.4S143.3,65.4,143,65.2L143,65.2z"/>
						<path id="Path-22" class="st15" d="M98.2,61.8c-3,2.6-5.3,6-6.6,9.7C89.2,77.9,95,88.4,95,88.4l9.1-7.2"/>
						<path id="Path-23" class="st16" d="M97.2,146.8l-2.5-1.4l0.7-3.5c0,0,3.7,0.4,4,1.6"/>
						<path id="Path-24" class="st9" d="M98.1,146.8c0.6-0.3,1.1-0.6,1.7-0.9c1.4-0.8,3.5-1.6,4.3-3.1c0.4-0.6,0.3-1.4-0.1-1.9
							c-1.3-1.6-4.1,1-5.6-0.7c-0.3-0.3-0.4-5.7-0.4-5.7l-5.5,1.5c0,0-0.9,10.9-0.8,11.5s2,1.3,2,1.3c0.6-0.1,1.1-0.3,1.6-0.6
							c0.6-0.4,0-5.5,0.8-4.8s1.1,3.5,1.1,3.5C97.5,146.8,97.8,146.8,98.1,146.8L98.1,146.8z"/>
						<path id="Path-25" class="st16" d="M107.7,152.1l-2.5-1.3l0.6-3.5c0,0,3.7,0.4,4,1.6"/>
						<path id="Path-26" class="st9" d="M108.6,152c0.6-0.4,1.1-0.6,1.7-0.9c1.4-0.8,3.5-1.6,4.3-3c0.4-0.6,0.3-1.4-0.1-1.9
							c-1.3-1.6-4.1,1-5.5-0.7c-0.3-0.3-0.4-5.8-0.4-5.8l-5.5,1.5c0,0-0.9,10.9-0.8,11.6s2,1.3,2,1.3c0.6-0.1,1.1-0.3,1.6-0.6
							c0.6-0.4,0-5.5,0.8-4.8s1.1,3.5,1.1,3.5C108,152.1,108.3,152,108.6,152z"/>
						<path id="Path-27" class="st17" d="M89.8,116.7l-1.6,21.6c0,0,2.6,3.6,11.2,1.6l0.1-14.6"/>
						<path id="Path-28" class="st17" d="M99.8,121c-0.2,1.9,0,22.4,0,22.4s2.4,4.5,12.8,0l-0.2-17.4"/>
						<path id="Path-29" class="st17" d="M89,123.9c0.7,0.5,0.9-2,1.7-1.6c2.7,1.6,5.6,2.8,8.5,3.7h0.1c0.1-0.1,0.3-0.1,0.5,0
							c0.1,0.1,0.3,0.2,0.3,0.3c1.8,0.5,3.7,1,5.6,1.3c2.4,0.4,4.4-1.4,6.9-1.5c0-9.5,0-36.7-4-42.4l-12-4c-0.1,1-5.8,7.7-5.7,15.8
							c0,6.9-0.4,13.9-1.2,20.7C89.6,116.6,89,123.3,89,123.9z"/>
						<path id="Path-30" class="st15" d="M109.7,72.7l-1.1,10.9c0,0-9,0.4-12.8-2.3V72"/>
						<path id="Path-31" class="st18" d="M121.1,65.5l-0.9,1.2c0.5-1,0.9-2.1,1.3-3.1c0.3-0.7-0.9-1-1.2-0.3l-0.1,0.4
							c0.1-0.4,0.2-0.8,0.3-1.2c0.1-0.3-0.1-0.6-0.4-0.7c-0.3-0.1-0.6,0.1-0.7,0.4l0,0c-0.2,1-0.6,2-0.9,3c0.2-0.9,0.3-1.8,0.4-2.6
							s-1.1-0.7-1.2,0c-0.1,1-0.3,2-0.5,3c0-0.3,0-0.7-0.1-1c0-0.2-0.1-0.3-0.3-0.4c0-0.1-0.1-0.3-0.1-0.4c-0.1-0.3-0.4-0.4-0.7-0.4
							c-0.3,0-0.5,0.3-0.5,0.6l-0.1,4.5c-0.2,0.5-0.5,0.9-0.8,1.3c0.6,0.4,1.1,0.8,1.7,1.3c0.5,0.4,0.9,0.8,1.4,1.3
							c0.4-0.5,0.8-1,1.1-1.5l0.1-0.1c1.1-1.6,2.2-3.2,3.3-4.7C122.6,65.4,121.5,64.8,121.1,65.5z"/>
						<path id="Path-32" class="st15" d="M104,62.7c0,0,4.2,1.1,6,3.9c1.1,1.9,2,3.8,2.8,5.8l3.1-4.9c0,0,3.8,1.2,5.3,3
							c0,0-4.5,9.8-8.4,10.7s-8.1-5.8-8.1-5.8s-0.9,2.8-0.7-0.2"/>
						<path id="Path-33" class="st19" d="M106.7,73.2c-1.2-1-2.2-2.3-2.7-3.8c-0.5-1.7,0.1-3.2,0.7-4.9c0.6-1.6,1-3.3,1.1-5
							c0-1.7-0.1-3.3-0.3-5c0-0.1,0-0.1,0-0.2c-0.6-1.9-1.7-3.5-4-3.7c-5.9-0.5-6.2,6-6.2,8.7s0.3,4.5-1.6,5.6c-2,1.1-3.4,4-1.5,6.4
							s0.2,1.5-1.1,3.6s-0.9,4.7,1.6,5.7s14.5-0.8,15.6-1.9c0.4-0.4,0.6-1,0.6-1.6C108.7,75.5,107.9,74.2,106.7,73.2L106.7,73.2z"/>
						<path id="Shape-7" class="st9" d="M112.5,19.2c1,1.4,1.6,3.1,1.7,4.9c0.1,0.8-0.1,1.6-0.5,2.3c-0.4,0.4-1.1,0.6-1.6,0.3
							c-0.3-0.1-0.6-0.3-0.9-0.6c-0.2-0.2-0.4-0.4-0.6-0.7l-0.2-0.3c0,0.1-0.1,0.2-0.2,0.2c-0.2,0.1-0.3,0.2-0.5,0.2
							c-0.3,0.1-0.7,0-1-0.1c-0.7-0.3-1.3-0.8-1.7-1.5c-0.5-0.7-0.7-1.6-0.7-2.4c-0.1-0.7,0.1-1.4,0.6-1.9c0.4-0.4,1-0.5,1.6-0.2
							c0.3,0.1,0.5,0.3,0.7,0.4s0.3,0.3,0.5,0.5l0.1,0.2v-0.6l1.3,0.5l0.1,3.6c0,0.3,0.1,0.5,0.2,0.7s0.3,0.4,0.5,0.5
							c0.6,0.2,0.9-0.3,0.9-1.6c-0.1-1.3-0.5-2.6-1.2-3.6c-0.7-1.1-1.7-1.9-2.8-2.4c-0.9-0.4-1.9-0.3-2.7,0.3c-0.8,0.8-1.1,1.9-1,3
							c0.1,1.4,0.5,2.7,1.3,3.9c0.6,1.1,1.6,2,2.8,2.6c0.4,0.2,0.8,0.3,1.3,0.2c0.3,0,0.6,0,0.8-0.2l0.3-0.1l0.8,1.5l-0.1,0.1
							c-0.1,0.1-0.2,0.1-0.4,0.2c-0.2,0.1-0.4,0.1-0.7,0.2c-0.3,0-0.6,0-0.8,0c-0.4,0-0.7-0.1-1.1-0.3c-1-0.4-1.9-1.1-2.6-1.9
							c-0.8-0.9-1.5-2-2-3.1s-0.8-2.3-0.8-3.5c-0.1-1,0.1-2,0.6-2.9c0.4-0.8,1-1.3,1.8-1.6c0.8-0.3,1.7-0.2,2.5,0.1
							C110.3,16.7,111.6,17.8,112.5,19.2L112.5,19.2z M109.7,23.8c0.2-0.3,0.3-0.6,0.3-1s-0.1-0.8-0.3-1.2c-0.2-0.3-0.5-0.6-0.8-0.7
							s-0.6-0.1-0.8,0.1c-0.2,0.3-0.3,0.6-0.3,0.9c0,0.4,0.1,0.8,0.4,1.2c0.2,0.3,0.5,0.6,0.8,0.7C109.2,24,109.5,23.9,109.7,23.8"
							/>
						<path id="Shape-8" class="st9" d="M188.4,88.8c1,1.4,1.6,3.1,1.7,4.9c0.1,0.8-0.1,1.6-0.5,2.3c-0.4,0.4-1.1,0.6-1.6,0.3
							c-0.3-0.1-0.6-0.3-0.9-0.6c-0.2-0.2-0.4-0.4-0.6-0.7l-0.2-0.3c0,0.1-0.1,0.2-0.1,0.2c-0.2,0.1-0.3,0.2-0.5,0.2
							c-0.3,0.1-0.7,0-0.9-0.1c-0.7-0.3-1.3-0.8-1.7-1.5c-0.5-0.7-0.7-1.6-0.8-2.4c-0.1-0.7,0.1-1.4,0.6-1.9c0.4-0.4,1-0.5,1.6-0.2
							c0.3,0.1,0.5,0.2,0.7,0.4c0.2,0.2,0.3,0.3,0.5,0.5l0.1,0.2v-0.6l1.3,0.5l0.1,3.6c0,0.3,0.1,0.5,0.2,0.7
							c0.1,0.2,0.3,0.4,0.5,0.5c0.6,0.2,0.9-0.3,0.9-1.6c-0.1-1.3-0.5-2.6-1.2-3.6c-0.7-1.1-1.7-1.9-2.8-2.4
							c-0.9-0.4-1.9-0.3-2.7,0.3c-0.8,0.8-1.1,1.9-1,3c0.1,1.4,0.5,2.7,1.3,3.8c0.6,1.1,1.6,2,2.8,2.5c0.4,0.2,0.8,0.3,1.3,0.3
							c0.3,0,0.6,0,0.8-0.2l0.3-0.2l0.8,1.4l-0.1,0.1c-0.1,0.1-0.2,0.1-0.4,0.2s-0.4,0.1-0.6,0.2c-0.3,0-0.6,0-0.9,0
							c-0.4,0-0.7-0.1-1.1-0.3c-1-0.4-1.9-1.1-2.6-1.9c-0.8-0.9-1.5-2-2-3.1s-0.8-2.3-0.8-3.4c-0.1-1,0.1-2,0.6-2.9
							c0.4-0.8,1-1.3,1.8-1.6c0.8-0.3,1.7-0.2,2.5,0.1C186.3,86.2,187.6,87.4,188.4,88.8L188.4,88.8z M185.6,93.4
							c0.2-0.3,0.3-0.6,0.3-1s-0.1-0.8-0.3-1.2c-0.2-0.3-0.4-0.6-0.8-0.7c-0.3-0.1-0.6-0.1-0.8,0.1c-0.2,0.3-0.3,0.6-0.3,0.9
							c0,0.4,0.1,0.8,0.4,1.2c0.2,0.3,0.5,0.6,0.8,0.7C185.1,93.6,185.4,93.6,185.6,93.4"/>
						
							<linearGradient id="Path-34_00000087370439516773518200000000483229723995938491_" gradientUnits="userSpaceOnUse" x1="-593.1656" y1="722.761" x2="-593.6856" y2="722.4111" gradientTransform="matrix(43.54 0 0 -26.33 25880.1406 19141.3613)">
							<stop  offset="3.000000e-02" style="stop-color:#7F3500"/>
							<stop  offset="1" style="stop-color:#231F20;stop-opacity:0"/>
						</linearGradient>
						
							<path id="Path-34" style="opacity:0.25;fill:url(#Path-34_00000087370439516773518200000000483229723995938491_);enable-background:new    ;" d="
							M60.2,116.3l-21.8-12.4l-21.8,12.4c0,0,12.1,7.6,23,13.9C46.5,125.3,52.7,119.8,60.2,116.3z"/>
					</g>
				</g>
				<path id="path-6-2" class="st21" d="M20.9,81.5v26.9l21,12l23.7-14V79.5"/>
				<path id="path-6-3" class="st22" d="M20.9,81.5v26.9l21,12l23.7-14V79.5"/>
				<path id="Path-35" class="st23" d="M41.9,93.5v26.9l23.7-14V79.5C65.6,79.5,41.9,93.5,41.9,93.5z"/>
				<path id="Path-36" class="st9" d="M20.9,81.5l24.3-13.9l20.3,11.9l-23.7,14L20.9,81.5z"/>
				<path id="Shape-9" class="st17" d="M42.5,73.8c2.5-0.2,4.9,0.4,7.1,1.6c1.2,0.7,1.9,1.5,2,2.3c0.1,0.9-0.5,1.7-1.3,2.1
					c-0.5,0.3-1,0.5-1.5,0.6c-0.4,0.1-0.9,0.1-1.3,0.1H47c0,0.1,0.1,0.2,0.1,0.3c0,0.3-0.1,0.5-0.3,0.8c-0.3,0.4-0.6,0.8-1,1
					c-1,0.6-2.2,0.9-3.3,0.9c-1.2,0-2.4-0.3-3.4-0.9c-0.8-0.4-1.4-1.2-1.5-2.1c0-0.9,0.5-1.6,1.3-2c0.4-0.2,0.7-0.4,1.1-0.5
					c0.3-0.1,0.7-0.2,1-0.2h0.3l-0.6-0.4l1.8-1.1l4.2,2.5c0.6,0.4,1.4,0.4,2.1,0c0.9-0.6,0.6-1.3-1-2.2c-1.6-0.9-3.4-1.3-5.3-1.2
					c-1.9,0-3.8,0.6-5.5,1.6c-1.5,1-2.3,2.1-2.2,3.4s0.8,2.4,2.4,3.3c1.7,0.9,3.6,1.4,5.6,1.3c1.9,0,3.8-0.5,5.5-1.5
					c0.6-0.3,1.1-0.8,1.5-1.3c0.3-0.3,0.5-0.7,0.6-1.1l0.1-0.4l2.4,0.1V81c0,0.2-0.1,0.4-0.2,0.6c-0.1,0.3-0.2,0.6-0.4,0.9
					c-0.2,0.4-0.5,0.7-0.8,1c-0.4,0.4-0.9,0.8-1.4,1.1c-1.4,0.9-3,1.4-4.7,1.7c-1.8,0.3-3.6,0.3-5.4,0.1c-1.6-0.2-3.2-0.7-4.7-1.5
					c-1.2-0.6-2.1-1.6-2.7-2.8c-0.5-1-0.5-2.2,0-3.3c0.5-1.2,1.5-2.2,2.6-2.9C37.3,74.6,39.9,73.8,42.5,73.8L42.5,73.8z M44.8,80.4
					c-0.1-0.4-0.4-0.8-0.8-1c-0.5-0.3-1.1-0.4-1.7-0.4c-0.5,0-1.1,0.1-1.5,0.4c-0.4,0.2-0.6,0.6-0.6,1c0.1,0.4,0.3,0.8,0.8,1
					c0.5,0.3,1.1,0.4,1.7,0.4c0.6,0,1.1-0.1,1.6-0.4C44.6,81.2,44.9,80.8,44.8,80.4"/>
			</g>
		</g>
	</g>
</g>
</svg>
